<?xml version="1.0" encoding="UTF-8" standalone="no"?>
<svg
   sodipodi:docname="logo.svg"
   inkscape:version="1.2.2 (b0a8486, 2022-12-01)"
   id="svg1044"
   version="1.1"
   viewBox="0 0 210 297"
   height="297mm"
   width="210mm"
   xmlns:inkscape="http://www.inkscape.org/namespaces/inkscape"
   xmlns:sodipodi="http://sodipodi.sourceforge.net/DTD/sodipodi-0.dtd"
   xmlns:xlink="http://www.w3.org/1999/xlink"
   xmlns="http://www.w3.org/2000/svg"
   xmlns:svg="http://www.w3.org/2000/svg"
   xmlns:rdf="http://www.w3.org/1999/02/22-rdf-syntax-ns#"
   xmlns:cc="http://creativecommons.org/ns#"
   xmlns:dc="http://purl.org/dc/elements/1.1/">
  <defs
     id="defs1038">
    <linearGradient
       id="linearGradient4239-7"
       inkscape:collect="always">
      <stop
         id="stop4235"
         offset="0"
         style="stop-color:#ffffff;stop-opacity:0.86666667" />
      <stop
         id="stop4237"
         offset="1"
         style="stop-color:#ffffff;stop-opacity:1" />
    </linearGradient>
    <inkscape:path-effect
       effect="offset"
       id="path-effect3800"
       is_visible="true"
       lpeversion="1"
       linejoin_type="miter"
       unit="mm"
       offset="-1.4"
       miter_limit="5.1"
       attempt_force_join="true"
       update_on_knot_move="true" />
    <inkscape:path-effect
       effect="offset"
       id="path-effect3782"
       is_visible="true"
       lpeversion="1"
       linejoin_type="miter"
       unit="mm"
       offset="-1.4"
       miter_limit="5.1"
       attempt_force_join="true"
       update_on_knot_move="true" />
    <inkscape:path-effect
       update_on_knot_move="true"
       attempt_force_join="true"
       miter_limit="5.3"
       offset="0.8"
       unit="mm"
       linejoin_type="extrp_arc3"
       lpeversion="1"
       is_visible="true"
       id="path-effect3744"
       effect="offset" />
    <inkscape:path-effect
       update_on_knot_move="true"
       attempt_force_join="true"
       miter_limit="5.1"
       offset="-1.4"
       unit="mm"
       linejoin_type="miter"
       lpeversion="1"
       is_visible="true"
       id="path-effect1815"
       effect="offset" />
    <linearGradient
       y2="119.42659"
       x2="-75.160362"
       y1="93.143517"
       x1="-74.92981"
       gradientTransform="matrix(1.026841,0,0,1.026841,188.58966,-71.583723)"
       gradientUnits="userSpaceOnUse"
       id="linearGradient6315"
       xlink:href="#linearGradient4239-7"
       inkscape:collect="always" />
    <linearGradient
       inkscape:collect="always"
       xlink:href="#linearGradient4239-7"
       id="linearGradient1777"
       gradientUnits="userSpaceOnUse"
       gradientTransform="matrix(1.026841,0,0,1.0634645,188.58966,-76.147541)"
       x1="-74.92981"
       y1="93.143517"
       x2="-75.160362"
       y2="119.42659" />
    <linearGradient
       inkscape:collect="always"
       xlink:href="#linearGradient4239-7"
       id="linearGradient1818"
       gradientUnits="userSpaceOnUse"
       gradientTransform="matrix(-1.026841,0,0,1.026841,34.814784,-71.583723)"
       x1="-74.92981"
       y1="93.143517"
       x2="-75.160362"
       y2="119.42659" />
  </defs>
  <sodipodi:namedview
     showguides="false"
     inkscape:window-maximized="0"
     inkscape:window-y="23"
     inkscape:window-x="0"
     inkscape:window-height="1009"
     inkscape:window-width="1920"
     inkscape:snap-global="false"
     showgrid="false"
     inkscape:document-rotation="0"
     inkscape:current-layer="layer1"
     inkscape:document-units="mm"
     inkscape:cy="783.46522"
     inkscape:cx="448.23861"
     inkscape:zoom="0.39376349"
     inkscape:pageshadow="2"
     inkscape:pageopacity="0.0"
     borderopacity="1.0"
     bordercolor="#666666"
     pagecolor="#ffffff"
     id="base"
     inkscape:showpageshadow="2"
     inkscape:pagecheckerboard="0"
     inkscape:deskcolor="#d1d1d1" />
  <metadata
     id="metadata1041">
    <rdf:RDF>
      <cc:Work
         rdf:about="">
        <dc:format>image/svg+xml</dc:format>
        <dc:type
           rdf:resource="http://purl.org/dc/dcmitype/StillImage" />
        <dc:title />
      </cc:Work>
    </rdf:RDF>
  </metadata>
  <g
     id="layer1"
     inkscape:groupmode="layer"
     inkscape:label="Layer 1">
    <g
       transform="matrix(0.54300373,0,0,0.54300373,45.377181,45.541473)"
       id="g1618"
       inkscape:export-filename="../images/logo.png"
       inkscape:export-xdpi="134.15442"
       inkscape:export-ydpi="134.15442">
      <path
         inkscape:export-ydpi="96"
         inkscape:export-xdpi="96"
         style="color:#000000;font-style:normal;font-variant:normal;font-weight:normal;font-stretch:normal;font-size:medium;line-height:normal;font-family:sans-serif;font-variant-ligatures:normal;font-variant-position:normal;font-variant-caps:normal;font-variant-numeric:normal;font-variant-alternates:normal;font-variant-east-asian:normal;font-feature-settings:normal;font-variation-settings:normal;text-indent:0;text-align:start;text-decoration:none;text-decoration-line:none;text-decoration-style:solid;text-decoration-color:#000000;letter-spacing:normal;word-spacing:normal;text-transform:none;writing-mode:lr-tb;direction:ltr;text-orientation:mixed;dominant-baseline:auto;baseline-shift:baseline;text-anchor:start;white-space:normal;shape-padding:0;shape-margin:0;inline-size:0;clip-rule:nonzero;display:inline;overflow:visible;visibility:visible;isolation:auto;mix-blend-mode:normal;color-interpolation:sRGB;color-interpolation-filters:linearRGB;solid-color:#000000;solid-opacity:1;vector-effect:none;fill:#c6f703;fill-opacity:1;fill-rule:nonzero;stroke:#009400;stroke-width:3.248;stroke-linecap:square;stroke-linejoin:miter;stroke-miterlimit:100;stroke-dasharray:none;stroke-dashoffset:11.2384;stroke-opacity:1;paint-order:stroke fill markers;color-rendering:auto;image-rendering:auto;shape-rendering:auto;text-rendering:auto;enable-background:accumulate;stop-color:#000000"
         d="m 61.822763,167.98933 3.25354,2.84634 2.07895,1.81901 h -7.1391 v 27.71614 h 37.58013 l 12.205967,10.35285 12.20597,-10.35285 h 37.58014 v -27.71614 h -7.13806 l 5.33146,-4.66535 h -22.71077 l -3.69073,4.66535 h -12.0039 l 0.86764,-4.66535 H 99.361032 l 0.867648,4.66535 H 88.224763 l -3.69021,-4.66535 z m 8.64546,3.24838 h 12.49433 l 3.69022,4.66535 h 17.484187 l -0.86764,-4.66535 h 13.06639 l -0.86765,4.66535 h 17.4842 l 3.69072,-4.66535 h 12.49434 l -5.33146,4.66535 H 156.34 v 21.21938 h -35.52344 l -11.01431,9.34206 -11.014308,-9.34206 H 63.264533 v -21.21938 h 12.53463 l -4.99969,-4.37544 z"
         id="path6297" />
      <path
         inkscape:export-ydpi="96"
         inkscape:export-xdpi="96"
         style="color:#000000;font-style:normal;font-variant:normal;font-weight:normal;font-stretch:normal;font-size:medium;line-height:normal;font-family:sans-serif;font-variant-ligatures:normal;font-variant-position:normal;font-variant-caps:normal;font-variant-numeric:normal;font-variant-alternates:normal;font-variant-east-asian:normal;font-feature-settings:normal;font-variation-settings:normal;text-indent:0;text-align:start;text-decoration:none;text-decoration-line:none;text-decoration-style:solid;text-decoration-color:#000000;letter-spacing:normal;word-spacing:normal;text-transform:none;writing-mode:lr-tb;direction:ltr;text-orientation:mixed;dominant-baseline:auto;baseline-shift:baseline;text-anchor:start;white-space:normal;shape-padding:0;shape-margin:0;inline-size:0;clip-rule:nonzero;display:inline;overflow:visible;visibility:visible;isolation:auto;mix-blend-mode:normal;color-interpolation:sRGB;color-interpolation-filters:linearRGB;solid-color:#000000;solid-opacity:1;vector-effect:none;fill:#00d100;fill-opacity:1;fill-rule:nonzero;stroke:#ffffff;stroke-width:3.248;stroke-linecap:square;stroke-linejoin:miter;stroke-miterlimit:100;stroke-dasharray:none;stroke-dashoffset:11.2384;stroke-opacity:1;paint-order:stroke fill markers;color-rendering:auto;image-rendering:auto;shape-rendering:auto;text-rendering:auto;enable-background:accumulate;stop-color:#000000"
         d="m 66.145493,169.61352 3.58479,3.13625 1.74718,1.5291 h -9.83712 v 24.46776 h 36.551769 l 11.610138,9.84746 11.61015,-9.84746 h 36.55177 v -24.46776 h -9.8361 l 5.33146,-4.66535 h -17.60254 l -3.69073,4.66535 h -14.7443 l 0.86815,-4.66535 h -16.97519 l 0.86816,4.66535 H 87.438763 l -3.69021,-4.66535 z"
         id="path6299" />
      <g
         id="g1823"
         transform="translate(-1.8999879,149.91826)">
        <path
           style="opacity:0.493827;fill:url(#linearGradient1777);fill-opacity:1;fill-rule:nonzero;stroke:none;stroke-width:1.61124;stroke-linecap:round;stroke-linejoin:round;stroke-miterlimit:4;stroke-dasharray:none;stroke-dashoffset:11.2384;stroke-opacity:1;paint-order:fill markers stroke"
           d="M 111.70222,56.375514 118.03618,21.285 h -12.66795 z"
           id="path1773"
           sodipodi:nodetypes="cccc" />
        <path
           sodipodi:nodetypes="cccc"
           id="path1816"
           d="m 151.32444,21.285 -39.62222,35.090514 26.92085,-35.09088 z"
           style="opacity:0.493827;fill:url(#linearGradient1818);fill-opacity:1;fill-rule:nonzero;stroke:none;stroke-width:1.58325;stroke-linecap:round;stroke-linejoin:round;stroke-miterlimit:4;stroke-dasharray:none;stroke-dashoffset:11.2384;stroke-opacity:1;paint-order:fill markers stroke" />
        <path
           style="opacity:0.493827;fill:url(#linearGradient6315);fill-opacity:1;fill-rule:nonzero;stroke:none;stroke-width:1.58325;stroke-linecap:round;stroke-linejoin:round;stroke-miterlimit:4;stroke-dasharray:none;stroke-dashoffset:11.2384;stroke-opacity:1;paint-order:fill markers stroke"
           d="M 72.08,21.285 111.70222,56.375514 84.781378,21.284634 Z"
           id="path6301"
           sodipodi:nodetypes="cccc" />
      </g>
      <path
         inkscape:export-ydpi="96"
         inkscape:export-xdpi="96"
         d="m 94.503233,177.88902 a 2.0697892,2.0697892 0 0 0 -2.07016,2.07016 v 1.20148 c -0.75316,0.001 -1.51282,0.15753 -2.19728,0.48421 a 2.0697892,2.0697892 0 0 0 -0.0176,0.008 c -0.52467,0.25624 -0.97002,0.64762 -1.37924,1.06247 -0.48457,-0.57212 -1.13363,-1.00595 -1.81436,-1.24231 -0.6811,-0.24773 -1.38042,-0.33951 -2.10737,-0.33951 -0.78203,0 -1.56196,0.13839 -2.3027,0.40204 a 2.0697892,2.0697892 0 0 0 -0.0119,0.004 c -0.0268,0.01 -0.0456,0.0349 -0.0724,0.045 a 2.0697892,2.0697892 0 0 0 -0.52142,-0.26355 c -0.25368,-0.0847 -0.46213,-0.11705 -0.65991,-0.13695 h -0.004 c -0.15279,-0.0161 -0.30581,-0.0253 -0.46095,-0.0253 -0.37274,0 -0.71569,0.22356 -1.08779,0.33021 a 2.0697892,2.0697892 0 0 0 -0.74828,-0.14107 h -1.89446 a 2.0697892,2.0697892 0 0 0 -0.6227,-1.2361 c -0.65497,-0.62585 -1.45098,-1.06396 -2.3089,-1.36323 -0.87879,-0.31553 -1.81771,-0.47077 -2.77916,-0.47077 -0.94735,0 -1.87663,0.15842 -2.74402,0.48059 -0.86128,0.31991 -1.65783,0.80327 -2.32647,1.43144 -0.67734,0.62775 -1.21484,1.40056 -1.58595,2.25412 a 2.0697892,2.0697892 0 0 0 -0.01,0.0233 c -0.37687,0.8967 -0.55087,1.87217 -0.55087,2.86701 0,0.9887 0.17608,1.96025 0.55087,2.85202 a 2.0697892,2.0697892 0 0 0 0.004,0.01 c 0.36045,0.84516 0.88354,1.61427 1.54305,2.24792 a 2.0697892,2.0697892 0 0 0 0.0134,0.0134 c 0.66755,0.62903 1.46415,1.11737 2.33216,1.44746 a 2.0697892,2.0697892 0 0 0 0.01,0.004 c 0.89453,0.33545 1.85269,0.49455 2.83031,0.49455 0.87692,0 1.71779,-0.0923 2.51768,-0.28939 0.52676,-0.12822 0.99271,-0.33655 1.46658,-0.53485 a 2.0697892,2.0697892 0 0 0 1.43764,0.58187 h 2.19728 a 2.0697892,2.0697892 0 0 0 1.78697,-1.02939 c 0.12349,0.11231 0.19269,0.27015 0.33021,0.36535 a 2.0697892,2.0697892 0 0 0 0.0289,0.0217 c 0.43429,0.28952 0.92547,0.50654 1.43764,0.63458 0.43382,0.10845 0.88068,0.17002 1.33377,0.17002 0.43468,0 0.85538,-0.15124 1.27951,-0.26769 a 2.0697892,2.0697892 0 0 0 0.6506,0.10542 h 2.0097 a 2.0697892,2.0697892 0 0 0 1.62109,-0.78496 c 0.20767,0.1435 0.36854,0.34834 0.59376,0.46095 0.70663,0.35332 1.49391,0.51367 2.26549,0.51367 0.51239,0 1.00116,-0.17008 1.49035,-0.3204 a 2.0697892,2.0697892 0 0 0 0.72244,0.13074 h 2.02365 a 2.0697892,2.0697892 0 0 0 1.689299,-0.87488 c 0.40681,0.27689 0.80539,0.57287 1.26969,0.74001 a 2.0697892,2.0697892 0 0 0 0.0351,0.0119 c 0.674138,0.22922 1.381468,0.33797 2.087728,0.33797 0.92306,0 1.83727,-0.16716 2.66805,-0.56069 a 2.0697892,2.0697892 0 0 0 0.0134,-0.008 c 0.64838,-0.31301 1.16146,-0.84421 1.63504,-1.39268 0.008,0.008 0.0112,0.0212 0.0196,0.0294 a 2.0697892,2.0697892 0 0 0 0.0155,0.0134 c 0.65296,0.62737 1.43385,1.12129 2.28721,1.45521 a 2.0697892,2.0697892 0 0 0 0.01,0.004 c 0.87952,0.33925 1.82242,0.49971 2.78122,0.49971 1.04267,0 2.05629,-0.18299 2.97862,-0.59738 a 2.0697892,2.0697892 0 0 0 0.0233,-0.0119 c 0.34444,-0.15975 0.58976,-0.45926 0.90226,-0.6718 0.28461,0.2607 0.54567,0.55262 0.88109,0.73019 a 2.0697892,2.0697892 0 0 0 0.0212,0.0119 c 0.66545,0.34223 1.38813,0.47284 2.08618,0.47284 0.42389,0 0.84715,-0.0647 1.24437,-0.18397 0.0716,-0.021 0.14076,-0.0655 0.21238,-0.0899 a 2.0697892,2.0697892 0 0 0 0.58033,0.0842 h 2.11717 a 2.0697892,2.0697892 0 0 0 0.86715,-0.1912 2.0697892,2.0697892 0 0 0 0.86505,0.1912 h 2.22467 a 2.0697892,2.0697892 0 0 0 1.33792,-0.49041 c 0.34939,0.19338 0.70435,0.38526 1.09398,0.48266 0.43166,0.10791 0.87862,0.17002 1.3317,0.17002 0.43426,0 0.85524,-0.15148 1.27952,-0.26769 a 2.0697892,2.0697892 0 0 0 0.65059,0.10542 h 2.01178 a 2.0697892,2.0697892 0 0 0 1.49963,-0.6444 c 0.25702,0.16811 0.48393,0.40263 0.75811,0.50746 a 2.0697892,2.0697892 0 0 0 0.0486,0.0176 c 0.59814,0.21112 1.19809,0.28164 1.81435,0.28164 0.3465,0 0.69631,-0.0359 1.04334,-0.0997 0.3116,-0.0491 0.60841,-0.11074 0.91985,-0.22066 a 2.0697892,2.0697892 0 0 0 0.78703,-0.50177 c 0.27363,0.15713 0.51157,0.37414 0.80666,0.48627 a 2.0697892,2.0697892 0 0 0 0.0114,0.004 c 0.6893,0.25678 1.42405,0.38499 2.15646,0.38499 0.73727,0 1.47556,-0.12556 2.16784,-0.38861 0.45051,-0.1712 0.83482,-0.4697 1.23042,-0.74414 a 2.0697892,2.0697892 0 0 0 1.71873,0.91777 h 2.19729 a 2.0697892,2.0697892 0 0 0 2.07068,-2.07015 v -2.80862 a 2.0697892,2.0697892 0 0 0 2.12701,-1.96887 l 0.0935,-1.9296 a 2.0697892,2.0697892 0 0 0 -1.41025,-2.0624 c -0.26792,-0.0895 -0.4672,-0.11739 -0.66196,-0.13695 h -0.004 c -0.14978,-0.0157 -0.30377,-0.0253 -0.45886,-0.0253 -0.37275,0 -0.7157,0.22356 -1.08781,0.33021 a 2.0697892,2.0697892 0 0 0 -0.74827,-0.14056 h -2.1172 a 2.0697892,2.0697892 0 0 0 -1.70891,0.90227 c -0.40828,-0.28234 -0.80706,-0.5861 -1.27331,-0.75395 -0.68474,-0.24651 -1.41034,-0.36329 -2.13477,-0.36329 -0.71932,0 -1.44137,0.11844 -2.12338,0.35915 a 2.0697892,2.0697892 0 0 0 -0.0114,0.004 c -0.28607,0.10299 -0.51456,0.31603 -0.78134,0.46302 a 2.0697892,2.0697892 0 0 0 -0.98237,-0.55294 2.0697892,2.0697892 0 0 0 -2.05259,-1.81436 h -2.15852 a 2.0697892,2.0697892 0 0 0 -2.06809,2.02158 2.0697892,2.0697892 0 0 0 -0.2191,0.14056 c -0.14983,-0.0724 -0.25585,-0.22818 -0.40979,-0.28164 -0.68312,-0.24846 -1.38247,-0.33951 -2.10944,-0.33951 -0.78203,0 -1.56144,0.13894 -2.30063,0.40204 a 2.0697892,2.0697892 0 0 0 -0.0119,0.004 c -0.0934,0.0338 -0.16055,0.11763 -0.2522,0.15606 v -1.73633 a 2.0697892,2.0697892 0 0 0 -2.07016,-2.07016 h -2.22467 a 2.0697892,2.0697892 0 0 0 -2.07015,2.07016 v 1.38855 h -1.8593 a 2.0697892,2.0697892 0 0 0 -1.08625,0.31057 2.0697892,2.0697892 0 0 0 -1.08572,-0.31057 h -1.05473 a 2.0697892,2.0697892 0 0 0 -0.47853,-0.97462 c -0.65217,-0.73916 -1.50601,-1.27298 -2.42774,-1.60352 -0.85561,-0.31838 -1.76112,-0.49196 -2.67581,-0.49196 -0.94736,0 -1.87661,0.15842 -2.74402,0.48059 -0.85997,0.31942 -1.6578,0.80132 -2.32854,1.43144 -0.59923,0.55538 -1.03638,1.25508 -1.3963,1.98851 -0.31536,-0.21836 -0.59037,-0.49606 -0.94516,-0.63666 -0.67656,-0.2763 -1.40388,-0.40824 -2.12493,-0.40824 -0.73723,0 -1.47714,0.12626 -2.168348,0.39429 -0.2877,0.11156 -0.50975,0.33621 -0.77514,0.49403 v -2.06241 a 2.0697892,2.0697892 0 0 0 -2.070159,-2.07016 z m 3.23236,4.78886 c -0.003,0.003 -0.005,0.007 -0.008,0.01 -0.004,0.004 -0.01,0.006 -0.0134,0.01 z"
         style="font-style:normal;font-variant:normal;font-weight:bold;font-stretch:normal;font-size:19.0194px;line-height:1.25;font-family:'Avenir Next';-inkscape-font-specification:'Avenir Next, Bold';font-variant-ligatures:normal;font-variant-caps:normal;font-variant-numeric:normal;font-variant-east-asian:normal;fill:#009400;fill-opacity:1;stroke:none;stroke-width:0.335037;stroke-opacity:1"
         id="path6307" />
      <path
         inkscape:export-ydpi="96"
         inkscape:export-xdpi="96"
         d="m 94.503933,179.95963 v 4.16776 h -0.0266 c -0.18763,-0.22335 -0.45134,-0.42868 -0.79084,-0.6163 -0.33951,-0.18762 -0.75477,-0.28132 -1.24616,-0.28132 -0.48245,0 -0.92026,0.0937 -1.31337,0.28132 -0.38417,0.18762 -0.71497,0.44211 -0.99193,0.76374 -0.26803,0.32163 -0.47797,0.69697 -0.62986,1.12582 -0.14295,0.41992 -0.2141,0.86234 -0.2141,1.32692 0,0.46458 0.0712,0.91108 0.2141,1.33992 0.14295,0.42886 0.34882,0.80881 0.61685,1.13938 0.27696,0.32163 0.61183,0.58073 1.00494,0.77728 0.39311,0.19656 0.83961,0.29488 1.33993,0.29488 0.44672,0 0.8666,-0.0896 1.25971,-0.26832 0.40204,-0.18762 0.7103,-0.45133 0.92472,-0.79084 h 0.0271 v 0.87107 h 2.02344 v -10.13131 z m 29.490317,0 v 10.13131 h 2.22454 v -10.13131 z m -52.551487,0.38865 c -0.72368,0 -1.39804,0.11624 -2.02345,0.34853 -0.6254,0.2323 -1.17075,0.56716 -1.63534,1.00494 -0.46458,0.42885 -0.83069,0.95166 -1.09872,1.56813 -0.25909,0.61647 -0.38864,1.30414 -0.38864,2.06356 0,0.75048 0.12955,1.43407 0.38864,2.05054 0.2591,0.60753 0.61651,1.13034 1.07216,1.56813 0.46459,0.43778 1.01401,0.77727 1.64835,1.01849 0.64327,0.24123 1.34479,0.36155 2.10421,0.36155 0.73261,0 1.40697,-0.0758 2.02344,-0.22766 0.6254,-0.15188 1.17021,-0.34852 1.6348,-0.58975 v -5.02526 h -3.913 v 1.84944 h 1.80934 v 1.72857 c -0.20549,0.0893 -0.42874,0.15643 -0.66997,0.2011 -0.24123,0.0358 -0.49625,0.0537 -0.76428,0.0537 -0.46458,0 -0.87984,-0.0717 -1.24615,-0.21465 -0.35738,-0.15188 -0.66101,-0.3572 -0.91117,-0.6163 -0.24123,-0.26803 -0.42455,-0.58497 -0.54964,-0.95128 -0.12507,-0.36631 -0.18754,-0.76881 -0.18754,-1.20659 0,-0.42884 0.0671,-0.82156 0.2011,-1.17894 0.14295,-0.36631 0.33958,-0.67918 0.58974,-0.93827 0.25016,-0.26803 0.54456,-0.47335 0.88407,-0.6163 0.3395,-0.15189 0.71077,-0.2282 1.11281,-0.2282 0.46459,0 0.87985,0.085 1.24616,0.25476 0.3663,0.16081 0.66125,0.37076 0.88461,0.62985 l 1.44725,-1.64835 c -0.40205,-0.38417 -0.92486,-0.68781 -1.56813,-0.91117 -0.64327,-0.23229 -1.34017,-0.34853 -2.09065,-0.34853 z m 39.811877,0 c -0.72367,0 -1.39803,0.11624 -2.02344,0.34853 -0.6254,0.2323 -1.17075,0.56716 -1.63534,1.00494 -0.46458,0.42885 -0.83069,0.95166 -1.09872,1.56813 -0.25909,0.61647 -0.38864,1.30414 -0.38864,2.06356 0,0.74154 0.12955,1.42052 0.38864,2.03699 0.2591,0.61646 0.61651,1.14851 1.07216,1.59523 0.45565,0.43778 0.99177,0.77726 1.60824,1.01849 0.6254,0.24123 1.30438,0.36155 2.03699,0.36155 0.80409,0 1.5143,-0.13824 2.13077,-0.41521 0.61647,-0.2859 1.13466,-0.67047 1.55458,-1.15292 l -1.59469,-1.50091 c -0.20549,0.28589 -0.4779,0.51837 -0.8174,0.69706 -0.3395,0.17869 -0.73738,0.26777 -1.19304,0.26777 -0.39311,0 -0.7546,-0.0712 -1.08516,-0.21411 -0.33057,-0.14294 -0.61682,-0.33957 -0.85805,-0.58974 -0.2323,-0.25909 -0.41508,-0.56735 -0.54909,-0.92472 -0.13402,-0.35737 -0.2011,-0.75064 -0.2011,-1.17948 0,-0.41992 0.0671,-0.80394 0.2011,-1.15239 0.13401,-0.35737 0.32141,-0.66562 0.56264,-0.92472 0.24123,-0.25909 0.52693,-0.4598 0.85751,-0.60275 0.3395,-0.15188 0.71022,-0.2282 1.11227,-0.2282 0.3663,0 0.72372,0.0717 1.07216,0.21465 0.34843,0.14295 0.63007,0.36158 0.84449,0.65641 l 1.55458,-1.55457 c -0.40204,-0.45565 -0.92947,-0.79921 -1.58167,-1.03151 -0.64328,-0.24123 -1.29972,-0.36208 -1.96979,-0.36208 z m 24.4049,1.31336 v 1.75568 h -1.05861 v 1.64835 h 1.07216 v 2.81428 c 0,0.35737 0.0399,0.68355 0.12033,0.97838 0.0804,0.2859 0.20996,0.53576 0.38864,0.75019 0.18762,0.20549 0.43341,0.36627 0.73718,0.48242 0.30376,0.10721 0.67911,0.16098 1.12582,0.16098 0.2323,0 0.46478,-0.022 0.69707,-0.0667 0.2323,-0.0357 0.4243,-0.0808 0.57619,-0.13442 l -0.0271,-1.60824 c -0.0804,0.0357 -0.1828,0.0629 -0.30788,0.0808 -0.11615,0.0178 -0.22777,0.0266 -0.33499,0.0266 -0.3127,0 -0.53186,-0.0758 -0.65695,-0.22766 -0.11614,-0.16082 -0.174,-0.39792 -0.174,-0.71062 v -2.54597 h 1.56759 v -1.64835 h -1.56759 v -1.75567 z m -50.742707,1.54103 c -0.54499,0 -1.08111,0.0937 -1.60824,0.28132 -0.51819,0.18762 -0.97391,0.46926 -1.36703,0.8445 l 1.11227,1.19249 c 0.20549,-0.18762 0.45128,-0.3484 0.73718,-0.48241 0.29483,-0.13402 0.59847,-0.20056 0.91117,-0.20056 0.33951,0 0.62522,0.0804 0.85751,0.24121 0.2323,0.15188 0.34854,0.39305 0.34854,0.72362 v 0.10679 c -0.48246,0 -0.97811,0.0272 -1.48737,0.0808 -0.50925,0.0536 -0.97422,0.16061 -1.39413,0.32143 -0.41098,0.16081 -0.75047,0.38868 -1.01849,0.68351 -0.2591,0.29483 -0.38865,0.68348 -0.38865,1.16593 0,0.39311 0.0763,0.72391 0.2282,0.99194 0.15188,0.26803 0.3439,0.48204 0.57619,0.64286 0.24123,0.16082 0.50494,0.27706 0.79084,0.34854 0.2859,0.0715 0.56238,0.10732 0.83041,0.10732 0.40204,0 0.77331,-0.0758 1.11281,-0.22766 0.34844,-0.15188 0.60754,-0.36644 0.77729,-0.6434 h 0.0401 v 0.71007 h 2.00989 v -3.36337 c 0,-0.60753 -0.0579,-1.13034 -0.17399,-1.56812 -0.10722,-0.44672 -0.28131,-0.81283 -0.52254,-1.09872 -0.24122,-0.29484 -0.55871,-0.50939 -0.95182,-0.64341 -0.38417,-0.14294 -0.85729,-0.21465 -1.42015,-0.21465 z m 16.800047,0 c -0.50926,0 -0.98291,0.085 -1.4207,0.25476 -0.437778,0.16975 -0.817188,0.41092 -1.138818,0.72362 -0.32164,0.30377 -0.57666,0.67911 -0.76428,1.12582 -0.18763,0.43779 -0.28132,0.92937 -0.28132,1.47436 0,0.56286 0.0937,1.06313 0.28132,1.50091 0.19655,0.43779 0.46026,0.8085 0.79083,1.11227 0.33951,0.29483 0.73277,0.52271 1.179488,0.68352 0.44671,0.15188 0.91982,0.22765 1.42015,0.22765 0.67901,0 1.27352,-0.12086 1.78277,-0.36208 0.51819,-0.25016 0.93345,-0.60295 1.24616,-1.05861 l -1.52748,-0.96483 c -0.15188,0.20549 -0.34851,0.3755 -0.58974,0.50952 -0.24123,0.12508 -0.53617,0.18755 -0.88461,0.18755 -0.19656,0 -0.38857,-0.0312 -0.57619,-0.0938 -0.17869,-0.0625 -0.34409,-0.14755 -0.49597,-0.25476 -0.14295,-0.11615 -0.26381,-0.25032 -0.36208,-0.4022 -0.0893,-0.15188 -0.14258,-0.32136 -0.16045,-0.50898 h 4.83772 c 0.009,-0.0804 0.0136,-0.16542 0.0136,-0.25476 v -0.26831 c 0,-0.57179 -0.085,-1.08075 -0.25476,-1.52747 -0.16081,-0.44672 -0.38868,-0.82667 -0.68351,-1.13937 -0.29483,-0.3127 -0.64763,-0.54926 -1.05861,-0.71008 -0.41098,-0.16975 -0.86209,-0.25476 -1.35348,-0.25476 z m 29.13637,0 c -0.54499,0 -1.08111,0.0937 -1.60824,0.28132 -0.51819,0.18762 -0.97392,0.46926 -1.36703,0.8445 l 1.11227,1.19249 c 0.20549,-0.18762 0.45128,-0.3484 0.73718,-0.48241 0.29483,-0.13402 0.59847,-0.20056 0.91117,-0.20056 0.33951,0 0.62576,0.0804 0.85805,0.24121 0.2323,0.15188 0.34854,0.39305 0.34854,0.72362 v 0.10679 c -0.48246,0 -0.97865,0.0272 -1.48791,0.0808 -0.50926,0.0536 -0.97368,0.16061 -1.39359,0.32143 -0.41098,0.16081 -0.75046,0.38868 -1.01849,0.68351 -0.2591,0.29483 -0.38865,0.68348 -0.38865,1.16593 0,0.39311 0.0758,0.72391 0.22766,0.99194 0.15188,0.26803 0.3439,0.48204 0.57619,0.64286 0.24123,0.16082 0.50494,0.27706 0.79084,0.34854 0.2859,0.0715 0.56292,0.10732 0.83095,0.10732 0.40205,0 0.77277,-0.0758 1.11227,-0.22766 0.34844,-0.15188 0.60754,-0.36644 0.77729,-0.6434 h 0.0401 v 0.71007 h 2.01043 v -3.36337 c 0,-0.60753 -0.0584,-1.13034 -0.17454,-1.56812 -0.10721,-0.44672 -0.2813,-0.81283 -0.52253,-1.09872 -0.24123,-0.29484 -0.55817,-0.50939 -0.95128,-0.64341 -0.38418,-0.14294 -0.85782,-0.21465 -1.42069,-0.21465 z m 12.91577,0 c -0.50032,0 -0.97858,0.0804 -1.43424,0.24121 -0.44671,0.16082 -0.83998,0.3933 -1.17948,0.69706 -0.33058,0.30377 -0.59375,0.67449 -0.7903,1.11227 -0.19655,0.43778 -0.29487,0.92936 -0.29487,1.47436 0,0.54499 0.0983,1.04064 0.29487,1.48736 0.19655,0.43778 0.45972,0.81312 0.7903,1.12582 0.3395,0.30377 0.73277,0.54032 1.17948,0.71008 0.45566,0.16974 0.93392,0.25475 1.43424,0.25475 0.50926,0 0.98698,-0.085 1.4337,-0.25475 0.44672,-0.16976 0.83998,-0.40631 1.17949,-0.71008 0.3395,-0.3127 0.60729,-0.68804 0.80384,-1.12582 0.19656,-0.44672 0.29487,-0.94237 0.29487,-1.48736 0,-0.545 -0.0983,-1.03658 -0.29487,-1.47436 -0.19655,-0.43778 -0.46434,-0.8085 -0.80384,-1.11227 -0.33951,-0.30376 -0.73277,-0.53624 -1.17949,-0.69706 -0.44672,-0.16082 -0.92444,-0.24121 -1.4337,-0.24121 z m -62.884437,0.0271 c -0.41098,0 -0.77301,0.10701 -1.08571,0.32143 -0.3127,0.21443 -0.55387,0.49144 -0.72362,0.83095 h -0.0266 v -0.96484 h -2.11776 v 6.67363 h 2.19798 v -3.43059 c 0,-0.13401 0.0272,-0.29018 0.0808,-0.46887 0.0536,-0.17868 0.13807,-0.34408 0.25422,-0.49596 0.12508,-0.15189 0.28586,-0.28144 0.48241,-0.38865 0.20549,-0.10721 0.4559,-0.16098 0.75073,-0.16098 0.0893,0 0.17843,0.005 0.26777,0.0135 0.0983,0.009 0.19659,0.0268 0.29487,0.0537 l 0.0938,-1.92967 c -0.0536,-0.0179 -0.12476,-0.0317 -0.2141,-0.0407 -0.0804,-0.009 -0.16542,-0.013 -0.25476,-0.013 z m 71.954427,0 c -0.41098,0 -0.77301,0.10701 -1.08571,0.32143 -0.3127,0.21443 -0.55387,0.49144 -0.72363,0.83095 h -0.0266 v -0.96484 h -2.11775 v 6.67363 h 2.19798 v -3.43059 c 0,-0.13401 0.0271,-0.29018 0.0808,-0.46887 0.0536,-0.17868 0.13806,-0.34408 0.25421,-0.49596 0.12508,-0.15189 0.28587,-0.28144 0.48242,-0.38865 0.20549,-0.10721 0.45589,-0.16098 0.75073,-0.16098 0.0893,0 0.17842,0.005 0.26777,0.0135 0.0983,0.009 0.19659,0.0268 0.29487,0.0537 l 0.0938,-1.92967 c -0.0536,-0.0179 -0.12477,-0.0317 -0.21411,-0.0407 -0.0804,-0.009 -0.16542,-0.013 -0.25476,-0.013 z m -37.15751,0.18754 v 4.12765 c 0,0.33951 0.0399,0.67438 0.12033,1.00495 0.0893,0.32164 0.22813,0.61197 0.41575,0.87106 0.19656,0.25016 0.44642,0.45603 0.75019,0.61684 0.3127,0.16082 0.69265,0.24121 1.13937,0.24121 0.23229,0 0.45092,-0.0318 0.65641,-0.0943 0.21442,-0.0626 0.40644,-0.14293 0.57619,-0.24121 0.17869,-0.0983 0.33078,-0.21397 0.45586,-0.34799 0.13401,-0.13401 0.24102,-0.27741 0.32143,-0.42929 h 0.0271 v 0.92472 h 2.11721 v -6.67362 h -2.19743 v 3.60512 c 0,0.38418 -0.10293,0.71905 -0.30843,1.00495 -0.19655,0.28589 -0.48688,0.42875 -0.87106,0.42875 -0.20549,0 -0.37089,-0.0359 -0.49597,-0.10732 -0.12508,-0.0804 -0.22801,-0.18742 -0.30842,-0.32143 -0.0714,-0.13402 -0.12061,-0.28611 -0.14743,-0.45586 -0.0268,-0.16975 -0.0401,-0.34846 -0.0401,-0.53608 v -3.61813 z m -13.95107,1.29982 c 0.43778,0 0.76342,0.12493 0.97784,0.37509 0.22336,0.25016 0.33552,0.54973 0.33552,0.89817 h -2.82783 c 0.009,-0.16976 0.0535,-0.33054 0.13389,-0.48242 0.0804,-0.16082 0.18741,-0.2996 0.32143,-0.41575 0.13401,-0.11614 0.29072,-0.20522 0.46941,-0.26777 0.17868,-0.0715 0.37532,-0.10732 0.58974,-0.10732 z m -8.740967,0.30842 c 0.25016,0 0.47395,0.0492 0.67051,0.14744 0.19655,0.0983 0.36141,0.22782 0.49542,0.38864 0.14295,0.16082 0.2505,0.3436 0.32198,0.54909 0.0804,0.20549 0.12033,0.41543 0.12033,0.62985 0,0.21443 -0.0399,0.42436 -0.12033,0.62986 -0.0715,0.20548 -0.17903,0.38881 -0.32198,0.54963 -0.13401,0.16081 -0.29887,0.29036 -0.49542,0.38864 -0.19656,0.0983 -0.42035,0.14744 -0.67051,0.14744 -0.25909,0 -0.48642,-0.0491 -0.68297,-0.14744 -0.19656,-0.0983 -0.36196,-0.22783 -0.49597,-0.38864 -0.13402,-0.16082 -0.23695,-0.34415 -0.30842,-0.54963 -0.0625,-0.21443 -0.0938,-0.42844 -0.0938,-0.64286 0,-0.21443 0.0312,-0.42437 0.0938,-0.62986 0.0715,-0.20549 0.1744,-0.38419 0.30842,-0.53608 0.13401,-0.16082 0.29941,-0.29036 0.49597,-0.38864 0.19655,-0.0983 0.42388,-0.14744 0.68297,-0.14744 z m 50.779557,0 c 0.25909,0 0.48642,0.0492 0.68298,0.14744 0.19656,0.0983 0.36196,0.22782 0.49596,0.38864 0.13402,0.15189 0.23695,0.33059 0.30843,0.53608 0.0715,0.20549 0.10732,0.41543 0.10732,0.62986 0,0.21442 -0.0359,0.42435 -0.10732,0.62985 -0.0625,0.20548 -0.16086,0.39288 -0.29487,0.56264 -0.13402,0.16081 -0.29942,0.29036 -0.49597,0.38864 -0.19656,0.0983 -0.42442,0.14744 -0.68352,0.14744 -0.25909,0 -0.48695,-0.0491 -0.68351,-0.14744 -0.19655,-0.0983 -0.36141,-0.22783 -0.49543,-0.38864 -0.13402,-0.16976 -0.23695,-0.35716 -0.30842,-0.56264 -0.0625,-0.2055 -0.0938,-0.41543 -0.0938,-0.62985 0,-0.21443 0.0313,-0.42437 0.0938,-0.62986 0.0715,-0.20549 0.16978,-0.38419 0.29487,-0.53608 0.13401,-0.16082 0.29942,-0.29036 0.49597,-0.38864 0.19656,-0.0983 0.42442,-0.14744 0.68351,-0.14744 z m -58.074897,2.15733 h 0.28132 v 0.2282 c 0,0.41991 -0.12086,0.75479 -0.36209,1.00494 -0.23229,0.24124 -0.57178,0.36155 -1.01849,0.36155 -0.10721,0 -0.21884,-0.009 -0.33498,-0.0266 -0.11615,-0.0268 -0.21908,-0.0667 -0.30843,-0.12034 -0.0893,-0.0536 -0.16511,-0.12531 -0.22765,-0.21465 -0.0536,-0.0893 -0.0802,-0.19635 -0.0802,-0.32143 0,-0.19655 0.0625,-0.35326 0.18754,-0.46941 0.12508,-0.12508 0.28125,-0.21878 0.46887,-0.28132 0.19655,-0.0626 0.41573,-0.10247 0.65695,-0.12033 0.25017,-0.0268 0.49595,-0.0407 0.73718,-0.0407 z m 45.936417,0 h 0.28132 v 0.2282 c 0,0.41991 -0.12031,0.75479 -0.36154,1.00494 -0.2323,0.24124 -0.57179,0.36155 -1.0185,0.36155 -0.10721,0 -0.21883,-0.009 -0.33498,-0.0266 -0.11615,-0.0268 -0.21909,-0.0667 -0.30842,-0.12034 -0.0894,-0.0536 -0.16515,-0.12531 -0.22766,-0.21465 -0.0536,-0.0893 -0.0808,-0.19635 -0.0808,-0.32143 0,-0.19655 0.0625,-0.35326 0.18755,-0.46941 0.12508,-0.12508 0.28178,-0.21878 0.4694,-0.28132 0.19657,-0.0626 0.41519,-0.10247 0.65642,-0.12033 0.25016,-0.0268 0.49595,-0.0407 0.73717,-0.0407 z"
         style="font-style:normal;font-variant:normal;font-weight:bold;font-stretch:normal;font-size:19.0194px;line-height:1.25;font-family:'Avenir Next';-inkscape-font-specification:'Avenir Next, Bold';font-variant-ligatures:normal;font-variant-caps:normal;font-variant-numeric:normal;font-variant-east-asian:normal;fill:#ffffff;fill-opacity:1;stroke:none;stroke-width:0.335037;stroke-opacity:1"
         id="path6309" />
    </g>
  </g>
</svg>
